<?xml version="1.0" standalone="no"?>
<!DOCTYPE svg PUBLIC "-//W3C//DTD SVG 20010904//EN"
 "http://www.w3.org/TR/2001/REC-SVG-20010904/DTD/svg10.dtd">
<svg version="1.0" xmlns="http://www.w3.org/2000/svg"
 width="695.000000pt" height="432.000000pt" viewBox="0 0 695.000000 432.000000"
 preserveAspectRatio="xMidYMid meet">

<g transform="translate(0.000000,432.000000) scale(0.100000,-0.100000)"
fill="#000000" stroke="none">
<path d="M4613 4254 c-11 -5 -136 -144 -254 -283 -30 -36 -72 -93 -92 -127
-20 -33 -65 -90 -99 -126 l-63 -66 -465 -6 c-256 -4 -571 -14 -700 -21 -129
-8 -280 -15 -335 -16 -55 0 -126 -4 -158 -8 -70 -9 -77 -5 -222 113 -144 117
-206 162 -363 263 -35 23 -74 51 -86 61 -46 42 -117 65 -131 42 -3 -5 1 -53 9
-107 36 -238 67 -759 73 -1217 4 -305 3 -318 -14 -311 -10 4 -65 25 -123 46
-58 22 -126 49 -151 60 -61 28 -101 23 -114 -15 -17 -48 6 -61 289 -166 60
-22 110 -41 112 -43 1 -1 4 -43 5 -92 l2 -90 -69 -3 c-78 -3 -94 -13 -94 -53
0 -38 24 -49 108 -49 67 0 70 -1 75 -26 11 -60 -14 -77 -122 -78 -43 -1 -44 0
-56 41 -18 60 -82 170 -128 220 -22 24 -63 56 -92 73 l-52 30 -166 0 c-188 0
-304 -13 -358 -40 -20 -11 -57 -42 -83 -71 -49 -55 -126 -200 -126 -237 0 -42
-34 -62 -104 -62 -72 0 -79 -5 -96 -71 -9 -35 -9 -56 0 -85 11 -36 18 -114 39
-404 5 -63 13 -160 19 -215 6 -55 16 -165 22 -245 6 -80 15 -190 20 -245 6
-55 14 -186 19 -292 9 -197 10 -203 44 -241 19 -21 28 -22 151 -22 72 0 208 7
301 15 94 9 391 20 660 25 270 6 603 14 740 20 138 5 414 10 615 10 201 0 421
5 490 10 69 5 715 10 1435 11 831 1 1323 5 1346 12 78 21 116 88 106 187 l-6
57 72 50 c83 59 231 207 247 247 14 39 12 112 -5 180 -18 70 -101 226 -151
284 -40 47 -127 102 -161 102 -30 0 -38 47 -27 169 11 130 11 281 -2 432 -9
106 -14 131 -34 159 -36 50 -97 72 -212 76 l-99 3 -35 70 c-38 76 -84 123
-159 160 -88 44 -137 51 -358 51 l-208 0 -77 -32 c-103 -42 -135 -77 -167
-181 -14 -45 -28 -101 -32 -124 l-6 -42 -54 -7 c-66 -8 -74 0 -71 66 l3 45 53
6 c59 8 92 31 92 64 0 38 -23 48 -94 41 l-64 -7 -12 83 c-9 65 -9 83 1 87 31
10 316 155 332 169 33 29 16 92 -24 92 -10 0 -85 -34 -168 -75 -136 -68 -167
-81 -173 -72 -1 1 -5 191 -8 422 -8 434 -20 648 -45 795 -11 66 -22 287 -25
487 0 31 -50 52 -87 37z m1 -386 c3 -73 13 -187 21 -253 28 -227 37 -411 33
-715 l-3 -304 -68 -18 c-216 -57 -376 -207 -533 -502 l-46 -86 -151 -2 c-637
-11 -632 -11 -1180 -3 -305 5 -432 3 -470 -5 -28 -7 -118 -14 -199 -17 -140
-5 -148 -5 -148 13 0 11 -3 29 -7 42 l-6 24 81 -7 c78 -7 81 -7 106 18 32 32
32 42 1 72 -22 23 -32 25 -108 25 -68 0 -86 3 -91 16 -7 17 -8 104 -2 104 2 0
33 -14 70 -31 59 -28 69 -30 101 -19 29 10 35 16 35 39 0 36 -17 50 -122 99
l-88 41 0 155 c0 150 1 156 20 156 26 0 119 47 245 123 126 77 237 187 373
369 114 153 155 217 171 269 12 36 12 36 79 43 37 3 88 6 113 6 l45 0 2 -212
c5 -367 13 -609 22 -634 13 -32 55 -42 81 -18 20 18 20 24 13 446 l-7 428 82
0 81 0 1 -182 c0 -231 7 -355 19 -378 14 -26 47 -31 73 -10 22 18 22 21 22
288 0 149 2 272 5 275 3 2 46 7 95 10 l90 5 0 -371 c0 -388 2 -404 43 -426 12
-7 26 -6 41 2 l23 12 2 380 c1 210 6 386 10 393 5 9 80 12 296 12 l289 0 15
28 c8 15 35 47 61 72 26 25 83 97 128 160 45 63 113 148 152 188 l70 74 6 -30
c3 -16 9 -90 13 -164z m-2587 -449 c2 -8 -15 -26 -37 -41 l-40 -28 -4 23 c-3
12 -8 46 -11 76 l-6 54 48 -35 c26 -19 49 -41 50 -49z m3714 -1122 c20 -9 49
-31 64 -49 29 -34 85 -143 85 -166 0 -10 -28 -12 -122 -10 l-122 3 -11 69
c-15 92 -51 120 -96 75 -18 -18 -21 -30 -17 -85 l4 -65 -75 3 -76 3 -11 68
c-12 77 -21 90 -60 90 -39 0 -54 -27 -54 -100 l0 -63 -53 0 c-28 0 -68 -4 -86
-10 -19 -5 -36 -8 -37 -7 -8 7 28 118 54 167 22 41 40 60 73 78 43 23 48 23
274 20 188 -3 237 -7 266 -21z m458 -353 c24 -20 29 -34 37 -101 5 -43 7 -294
6 -558 -3 -410 -5 -482 -18 -491 -46 -36 -332 -52 -429 -25 -62 18 -96 41
-157 105 -48 50 -48 50 -48 121 0 166 39 334 101 435 38 62 38 109 -1 186 -37
75 -102 143 -164 173 -59 29 -119 24 -237 -19 -119 -43 -153 -67 -267 -184
-92 -94 -109 -117 -153 -210 -58 -121 -79 -207 -79 -326 0 -115 12 -182 51
-276 30 -72 43 -90 153 -200 124 -124 251 -219 366 -273 l59 -28 -1672 -6
c-1824 -7 -2171 -14 -2682 -52 -402 -30 -438 -30 -455 -10 -9 11 -15 57 -17
133 -2 64 -8 150 -13 190 -6 40 -10 110 -11 155 0 45 -5 107 -10 137 -5 30
-13 107 -19 170 -5 63 -14 156 -19 205 -6 50 -11 114 -11 144 0 29 -7 83 -15
120 -8 36 -18 106 -23 154 -12 108 -1 152 37 162 14 4 150 9 301 12 428 7 763
24 875 44 33 5 161 14 285 19 124 6 243 13 265 18 22 4 249 5 505 2 256 -4
611 -3 790 1 179 4 440 8 580 9 140 0 285 5 321 10 37 5 181 14 320 19 140 6
279 15 309 22 138 28 270 35 683 36 l428 1 28 -24z m206 -794 c43 -27 72 -66
130 -176 38 -73 48 -104 52 -156 l5 -64 -61 -75 c-35 -41 -81 -85 -104 -99
-23 -14 -58 -36 -77 -48 -77 -49 -349 -135 -495 -157 l-40 -6 58 31 c54 29 58
33 55 62 -2 25 -15 41 -55 73 -28 22 -50 45 -49 50 1 6 20 20 42 32 29 17 55
23 104 23 78 0 239 25 283 44 78 33 171 136 165 183 -3 25 -14 36 -50 47 -16
5 -18 20 -18 131 0 86 3 125 11 125 7 0 26 -9 44 -20z m-159 -844 l-15 -36
-153 1 c-144 1 -150 2 -103 14 100 25 201 54 240 68 48 17 54 8 31 -47z"/>
<path d="M4501 3812 c-21 -7 -73 -62 -100 -105 -12 -20 -52 -58 -87 -83 -87
-62 -97 -107 -33 -142 17 -9 54 -35 82 -57 94 -76 129 -97 155 -97 48 0 52 19
51 231 -1 108 -4 207 -8 220 -7 25 -36 41 -60 33z m-41 -267 c0 -25 -3 -45 -7
-45 -4 0 -17 10 -30 22 l-23 22 22 23 c31 33 38 29 38 -22z"/>
<path d="M3754 2951 c-86 -43 -97 -52 -109 -89 -9 -31 51 -92 92 -92 35 0 137
48 181 84 41 35 45 87 8 111 -49 32 -85 29 -172 -14z"/>
<path d="M2533 2969 c-22 -22 -16 -93 10 -116 34 -32 122 -73 172 -80 122 -16
127 109 6 176 -52 29 -168 41 -188 20z"/>
<path d="M4068 2716 c-64 -23 -131 -72 -216 -160 -82 -84 -93 -107 -69 -140
11 -16 36 -18 199 -22 l185 -5 27 31 c14 17 26 40 26 50 0 34 -23 40 -116 34
-49 -3 -99 -2 -112 3 l-23 9 25 26 c14 14 53 39 86 57 86 46 105 83 62 119
-19 15 -27 15 -74 -2z"/>
<path d="M2470 2562 c-44 -24 -83 -91 -84 -146 -1 -63 21 -97 84 -129 46 -23
62 -27 100 -22 25 4 56 14 70 22 35 20 71 79 77 122 6 47 -31 118 -76 148 -43
29 -121 31 -171 5z m64 -48 c37 -14 10 -44 -40 -44 -28 0 -32 24 -6 39 20 12
25 13 46 5z"/>
<path d="M3365 2343 c-34 -13 -54 -13 -133 -3 -92 11 -95 11 -118 -11 -29 -27
-33 -77 -6 -86 39 -14 84 -57 108 -106 32 -63 37 -67 91 -67 52 0 64 12 107
103 18 40 43 81 54 91 24 21 29 65 10 84 -16 16 -64 14 -113 -5z m-185 -58 c0
-8 -7 -15 -15 -15 -16 0 -20 12 -8 23 11 12 23 8 23 -8z"/>
<path d="M3601 1713 c-19 -16 -71 -168 -71 -207 0 -12 -6 -12 -32 2 -21 10
-58 17 -98 17 -91 0 -141 -24 -182 -89 -29 -44 -33 -59 -33 -117 0 -73 14
-103 69 -143 23 -18 43 -21 128 -22 58 -1 104 -6 111 -13 19 -19 56 -12 72 13
9 14 32 98 50 188 19 90 44 197 55 238 25 94 25 105 0 130 -25 25 -42 25 -69
3z m-138 -324 c23 -28 22 -49 -6 -90 -20 -31 -28 -34 -76 -37 -58 -3 -91 15
-91 50 0 34 29 88 52 98 34 14 100 3 121 -21z"/>
<path d="M1610 1641 c-123 -43 -200 -200 -200 -406 0 -104 14 -135 59 -135 41
0 51 17 51 86 l0 61 43 -8 c68 -13 190 -10 243 6 27 8 50 15 51 15 1 0 5 -17
8 -37 11 -64 16 -74 40 -85 19 -9 30 -7 51 7 25 16 26 20 20 80 -9 84 -42 207
-71 266 -29 55 -93 121 -142 144 -53 25 -93 27 -153 6z m140 -132 c45 -34 89
-124 71 -142 -13 -13 -215 -23 -257 -13 -29 8 -31 33 -8 79 30 59 64 97 97
105 39 11 52 7 97 -29z"/>
<path d="M1135 1596 c-45 -45 -45 -117 0 -138 35 -16 53 -4 77 49 25 57 25 83
2 100 -27 19 -52 16 -79 -11z"/>
<path d="M2157 1519 c-80 -18 -127 -58 -152 -128 -32 -91 -11 -162 63 -218 38
-29 51 -33 106 -33 41 0 69 5 85 16 22 16 25 16 52 0 59 -35 98 6 79 82 -6 26
-10 76 -8 112 3 77 -14 109 -76 144 -49 28 -97 36 -149 25z m87 -115 c24 -9
20 -75 -7 -115 -29 -44 -77 -51 -113 -18 -13 12 -24 30 -24 39 0 34 22 78 43
88 25 12 77 15 101 6z"/>
<path d="M2645 1519 c-11 -6 -32 -22 -46 -36 l-26 -23 -18 20 c-24 26 -71 26
-85 0 -7 -13 -7 -54 0 -132 5 -62 10 -123 10 -136 0 -23 40 -72 60 -72 23 0
60 49 60 79 0 72 79 215 108 197 23 -14 41 -64 48 -132 8 -85 24 -114 64 -114
44 0 54 28 46 124 -7 91 -42 177 -87 209 -32 23 -106 32 -134 16z"/>
<path d="M3809 1466 c-109 -45 -145 -85 -156 -175 -8 -68 9 -107 71 -173 49
-51 63 -60 143 -85 107 -33 172 -35 230 -5 51 26 65 62 38 92 -22 24 -39 25
-94 6 -37 -14 -47 -13 -122 9 -91 26 -114 39 -51 29 30 -5 56 -1 87 11 129 49
143 235 22 294 -55 27 -98 26 -168 -3z m125 -102 c19 -18 21 -55 4 -72 -13
-13 -106 -16 -146 -6 -37 10 -22 36 37 67 63 31 83 33 105 11z"/>
<path d="M1215 1072 c-63 -21 -124 -82 -166 -167 -27 -56 -31 -74 -32 -157 -2
-82 2 -101 27 -158 39 -90 77 -134 141 -166 76 -36 162 -43 236 -16 106 37
233 142 254 210 9 31 -18 72 -48 72 -16 0 -41 -20 -80 -64 -114 -129 -251
-161 -346 -81 -16 14 -40 53 -55 91 -23 57 -26 74 -20 132 6 67 39 137 82 174
59 52 153 38 238 -36 66 -58 92 -63 119 -22 15 22 15 27 1 55 -23 44 -116 110
-187 132 -72 22 -97 23 -164 1z"/>
<path d="M4046 838 c-9 -12 -16 -27 -16 -33 0 -5 -13 -44 -29 -85 -60 -153
-61 -233 -4 -301 52 -61 161 -79 224 -36 41 27 79 82 79 113 0 28 -25 54 -51
54 -17 0 -29 -10 -74 -62 -19 -22 -68 -23 -89 -2 -10 9 -16 33 -16 60 0 43 1
44 34 44 42 0 86 33 86 65 0 29 -25 55 -52 55 -15 0 -18 4 -13 18 4 9 9 32 12
49 11 67 -56 112 -91 61z"/>
<path d="M4382 835 c-28 -20 -29 -59 -2 -102 32 -53 100 -37 100 23 0 29 -26
84 -39 84 -5 0 -15 2 -23 5 -7 3 -23 -2 -36 -10z"/>
<path d="M1727 758 c-23 -35 -18 -221 7 -267 49 -91 143 -105 243 -38 l46 32
42 -42 c47 -47 81 -55 108 -25 28 31 21 67 -19 99 -31 25 -36 35 -38 74 0 24
3 65 7 91 7 43 6 50 -17 73 -14 14 -30 25 -36 25 -23 0 -57 -47 -64 -88 -12
-81 -82 -162 -138 -162 -39 0 -51 34 -43 125 7 87 -6 119 -52 123 -24 2 -35
-2 -46 -20z"/>
<path d="M2751 743 c-5 -10 -18 -48 -29 -85 -24 -77 -64 -159 -86 -177 -13
-11 -20 -10 -42 4 -26 17 -26 18 -20 105 7 81 6 90 -13 109 -27 27 -46 26 -76
-4 -17 -16 -25 -35 -25 -57 0 -34 -45 -123 -74 -147 -13 -11 -17 -9 -26 14 -5
14 -10 61 -10 103 0 87 -16 122 -55 122 -45 0 -58 -37 -53 -148 5 -113 28
-171 80 -198 42 -22 103 -13 136 19 l25 25 39 -28 c50 -37 114 -47 155 -27 55
29 104 110 148 245 34 107 25 141 -37 142 -16 0 -31 -7 -37 -17z"/>
<path d="M2916 700 c-46 -44 -57 -61 -67 -106 -15 -66 -3 -112 40 -164 27 -33
33 -35 88 -35 47 0 68 5 98 25 l38 26 23 -23 c27 -26 43 -29 69 -9 18 13 18
19 7 92 -7 44 -12 96 -12 117 0 30 -8 46 -38 79 -37 40 -41 41 -115 46 l-76 5
-55 -53z m160 -75 c9 -21 -37 -97 -69 -115 -26 -14 -29 -14 -43 5 -18 25 -10
71 19 103 24 26 84 31 93 7z"/>
<path d="M3334 702 c-75 -36 -117 -119 -96 -189 30 -99 152 -145 236 -88 l36
24 15 -29 c12 -23 23 -30 44 -30 59 0 62 27 18 194 -29 112 -47 129 -145 134
-50 2 -77 -2 -108 -16z m126 -109 c0 -40 -31 -102 -52 -104 -42 -4 -68 18 -68
57 0 29 35 72 63 77 54 10 57 9 57 -30z"/>
<path d="M3633 708 c-20 -26 -20 -45 -2 -133 10 -49 19 -106 19 -126 0 -67 52
-98 95 -55 22 22 25 33 25 99 0 93 16 112 84 105 57 -7 86 11 86 52 0 21 -8
35 -27 47 -35 23 -121 23 -157 -1 -27 -17 -28 -17 -43 3 -16 24 -65 29 -80 9z"/>
</g>
</svg>
