<?xml version="1.0" standalone="no"?>
<!DOCTYPE svg PUBLIC "-//W3C//DTD SVG 20010904//EN"
 "http://www.w3.org/TR/2001/REC-SVG-20010904/DTD/svg10.dtd">
<svg version="1.0" xmlns="http://www.w3.org/2000/svg"
 width="1280.000000pt" height="1049.000000pt" viewBox="0 0 1280.000000 1049.000000"
 preserveAspectRatio="xMidYMid meet">

<g transform="translate(0.000000,1049.000000) scale(0.100000,-0.100000)"
fill="#000000" stroke="none">
<path d="M10350 10475 c-163 -30 -379 -117 -494 -199 -84 -60 -179 -163 -209
-228 -13 -29 -39 -114 -58 -188 -68 -273 -38 -393 110 -437 67 -19 151 -12
215 17 24 12 79 51 122 87 169 141 278 190 402 180 88 -6 163 -36 271 -107
221 -145 366 -338 429 -569 24 -89 26 -112 26 -311 1 -201 -1 -227 -32 -400
-91 -509 -169 -760 -351 -1127 -90 -180 -150 -257 -302 -388 -51 -44 -118
-102 -148 -129 -214 -186 -356 -216 -696 -148 -389 78 -605 97 -1095 97 -439
-1 -467 -2 -1179 -76 -512 -53 -581 -62 -1851 -249 -190 -28 -435 -64 -545
-80 -150 -22 -218 -36 -270 -58 -114 -47 -169 -57 -305 -56 -106 1 -156 7
-330 44 -241 50 -352 80 -423 117 -69 34 -381 247 -588 399 -205 152 -284 200
-435 266 -291 127 -394 207 -665 518 -134 153 -240 260 -256 260 -14 0 -37
-21 -72 -67 -25 -33 -39 -43 -61 -43 -20 0 -37 -10 -55 -32 l-28 -33 7 -230
c8 -286 11 -279 -121 -346 -266 -134 -339 -203 -485 -453 -122 -210 -150 -248
-265 -368 -210 -219 -216 -271 -58 -546 141 -246 181 -294 295 -350 l74 -37
206 3 c181 2 212 0 270 -17 79 -25 147 -66 222 -137 31 -30 66 -54 77 -54 28
0 85 -53 133 -123 49 -72 193 -368 238 -489 l32 -86 -16 -374 c-9 -205 -24
-492 -32 -638 -9 -146 -13 -314 -10 -375 4 -76 1 -130 -8 -175 -16 -72 -119
-319 -199 -475 -83 -163 -309 -490 -499 -723 -195 -238 -633 -684 -728 -740
-42 -25 -53 -27 -175 -28 l-130 -1 -100 -47 c-112 -53 -135 -71 -173 -136 -36
-60 -38 -173 -5 -235 38 -71 80 -103 158 -119 132 -28 276 -39 425 -33 216 8
284 32 445 152 107 80 136 95 235 124 103 31 153 65 266 184 220 230 355 342
644 534 352 234 543 384 637 504 26 34 89 92 142 132 140 105 318 285 383 387
30 47 77 105 104 129 53 47 183 136 250 169 22 11 74 46 114 76 40 31 80 56
88 56 9 0 35 -12 60 -26 37 -22 64 -28 156 -36 192 -15 388 -38 461 -53 92
-20 180 -64 232 -117 36 -38 254 -413 445 -768 81 -150 261 -582 328 -783 21
-65 21 -69 5 -87 -10 -11 -52 -31 -94 -45 -89 -29 -140 -67 -179 -133 -23 -40
-27 -58 -27 -122 1 -81 41 -228 73 -264 27 -29 51 -35 250 -57 199 -22 406
-22 487 2 49 14 106 71 123 125 22 67 26 255 9 454 -9 102 -19 228 -22 280 -9
123 -33 272 -101 609 -97 487 -202 1077 -192 1087 3 3 41 13 84 24 44 10 106
31 139 47 l60 28 445 0 c522 -1 745 -13 1082 -60 269 -38 364 -42 448 -20 104
28 192 13 263 -46 44 -36 66 -77 108 -197 43 -121 89 -205 164 -298 35 -43
108 -134 162 -201 54 -67 137 -175 183 -240 46 -65 115 -161 153 -213 139
-190 157 -275 81 -388 -24 -37 -264 -307 -396 -447 l-85 -90 -110 0 c-108 0
-111 -1 -187 -39 -89 -45 -181 -129 -217 -196 -42 -79 -25 -242 32 -315 44
-56 66 -60 284 -59 212 1 545 21 582 35 35 13 127 110 345 364 113 132 242
273 287 313 54 49 102 105 145 170 70 106 205 367 287 557 70 162 72 200 25
490 -50 315 -67 468 -64 565 3 76 5 85 23 88 19 3 325 -90 705 -212 91 -30
224 -66 295 -80 288 -59 495 -214 615 -462 22 -44 74 -174 115 -289 105 -293
157 -482 170 -620 14 -149 61 -251 181 -389 90 -105 150 -121 239 -65 79 50
171 144 196 202 20 46 23 68 23 187 l1 135 -134 355 c-176 467 -236 652 -272
840 -51 263 -70 342 -104 430 -39 103 -167 365 -190 390 -9 10 -46 36 -82 57
-42 24 -91 66 -137 117 -39 44 -121 129 -182 190 -108 107 -113 114 -134 185
-18 57 -38 94 -90 163 -68 88 -68 89 -83 191 -9 56 -21 158 -27 227 -6 69 -16
175 -22 235 -7 61 -13 157 -13 215 -1 117 9 89 -133 395 -33 72 -68 153 -77
180 -18 54 -34 191 -35 293 0 36 -9 95 -21 134 -42 138 -17 221 143 470 212
329 259 409 344 580 48 95 103 202 124 238 74 128 140 264 166 344 14 44 50
133 80 197 31 68 70 176 93 260 119 431 141 562 141 822 0 453 -118 873 -356
1269 -87 144 -138 199 -212 229 -37 15 -80 44 -124 85 -102 96 -211 166 -423
272 -151 76 -235 104 -305 104 -30 0 -80 6 -110 14 -66 17 -170 17 -270 -1z
m286 -81 c31 -8 70 -11 96 -8 39 5 60 0 154 -40 210 -89 425 -219 521 -317 44
-46 73 -65 125 -85 83 -32 107 -58 213 -235 177 -297 286 -623 326 -969 15
-131 6 -453 -15 -567 -43 -234 -158 -629 -215 -741 -11 -22 -42 -99 -67 -169
-55 -150 -65 -173 -152 -318 -37 -60 -94 -171 -128 -246 -74 -160 -122 -243
-291 -501 -70 -106 -143 -224 -164 -263 -72 -135 -85 -236 -49 -367 14 -50 20
-103 20 -169 0 -178 18 -240 159 -534 l76 -160 1 -100 c0 -55 5 -125 12 -155
6 -30 16 -129 22 -220 14 -205 45 -431 64 -467 8 -16 37 -55 65 -87 36 -42 61
-86 86 -153 33 -83 44 -100 108 -163 39 -39 74 -70 78 -70 4 0 44 -44 88 -97
78 -96 126 -140 226 -205 46 -30 56 -45 118 -168 116 -232 144 -316 192 -590
40 -227 96 -401 312 -974 l105 -278 -4 -133 c-3 -130 -4 -134 -33 -176 -35
-50 -149 -145 -183 -154 -33 -8 -55 7 -127 92 -80 93 -121 175 -135 268 -26
177 -35 218 -71 345 -21 74 -58 194 -82 265 -138 403 -227 562 -390 691 -124
98 -232 147 -417 189 -85 19 -216 55 -290 80 -326 107 -695 215 -735 215 -63
0 -84 -22 -95 -100 -13 -91 9 -297 71 -675 41 -254 41 -262 -27 -414 -77 -172
-214 -442 -264 -521 -23 -36 -94 -117 -158 -180 -64 -63 -213 -229 -331 -368
-118 -140 -230 -264 -250 -277 -33 -22 -52 -24 -256 -35 -345 -17 -487 -17
-518 -1 -39 21 -61 75 -65 161 -3 69 -1 78 25 116 40 58 91 99 179 145 l77 40
87 -7 c70 -5 94 -3 122 10 47 23 432 438 507 548 70 104 80 202 31 306 -52
111 -325 493 -505 707 -159 189 -207 267 -264 427 -40 115 -51 135 -103 184
-53 51 -112 82 -184 95 -45 8 -72 6 -157 -11 -116 -25 -123 -24 -442 21 -260
37 -365 44 -825 60 -468 15 -687 5 -779 -36 -33 -15 -109 -39 -168 -54 l-108
-26 2 -55 c2 -65 86 -538 183 -1036 84 -427 104 -565 130 -896 23 -292 24
-366 9 -437 -22 -102 -68 -130 -228 -138 -127 -6 -473 29 -508 53 -13 8 -25
27 -29 42 -3 15 -12 47 -20 71 -18 58 -18 144 1 180 23 45 67 76 165 117 169
70 170 82 12 474 -138 343 -241 553 -487 990 -156 278 -180 314 -230 358 -100
89 -231 120 -647 155 -138 12 -161 16 -195 39 -21 14 -48 28 -60 32 -36 12
-95 -11 -148 -57 -27 -24 -95 -69 -151 -100 -187 -105 -286 -190 -354 -306
-46 -79 -226 -264 -345 -354 -44 -33 -141 -122 -215 -198 -149 -151 -228 -213
-560 -439 -310 -210 -405 -287 -614 -493 -185 -182 -230 -215 -322 -238 -75
-18 -122 -44 -204 -109 -130 -103 -233 -142 -415 -156 -124 -9 -441 24 -484
50 -6 4 -23 27 -37 52 -35 59 -36 126 -2 186 20 37 36 49 113 88 l90 44 140 6
c95 4 152 11 176 22 51 22 147 109 356 319 331 335 457 486 714 854 187 268
225 333 307 534 125 302 122 287 122 521 0 113 6 322 14 465 8 143 17 334 21
425 3 91 11 224 16 296 13 158 6 191 -77 387 -78 185 -166 352 -228 433 -42
55 -65 75 -117 101 -35 18 -65 37 -67 43 -7 21 -123 102 -194 135 -107 50
-190 61 -348 45 -103 -11 -141 -11 -184 -1 -65 14 -161 74 -197 122 -39 52
-141 223 -193 324 -79 154 -66 191 137 399 81 83 132 157 240 351 105 189 226
304 414 396 119 58 156 86 186 143 25 47 27 113 13 343 -10 156 -6 173 43 173
18 0 37 12 62 42 33 38 38 41 54 28 10 -8 93 -100 185 -205 92 -104 191 -213
221 -241 93 -87 217 -172 333 -228 61 -30 168 -82 238 -115 100 -48 163 -88
290 -184 167 -126 507 -363 588 -409 72 -41 174 -74 371 -118 249 -55 346 -70
464 -70 120 0 216 19 303 60 68 32 80 34 382 76 102 14 363 52 580 85 1052
159 1218 180 2220 274 300 28 542 38 785 32 373 -10 577 -31 900 -95 160 -31
211 -37 320 -37 212 0 298 37 516 222 252 213 339 312 422 478 199 400 300
730 381 1246 84 531 1 869 -279 1143 -170 167 -365 266 -522 266 -131 0 -238
-48 -391 -175 -113 -93 -163 -118 -242 -118 -150 -1 -183 95 -120 352 36 147
54 189 107 257 118 148 411 287 660 313 88 9 134 6 209 -15z"/>
</g>
</svg>
